<?xml version="1.0" standalone="no"?>
<!DOCTYPE svg PUBLIC "-//W3C//DTD SVG 1.1//EN" "http://www.w3.org/Graphics/SVG/1.1/DTD/svg11.dtd"><svg class="icon"
  width="24" height="24" viewBox="0 0 1024 1024" version="1.1" xmlns="http://www.w3.org/2000/svg">
  <path
    d="M500.19 906.12999999c15.91-15.91 15.91-41.62 0-57.52999999L203.45 551.85000001 919 551.85c22.46000001 0 40.69-18.23 40.69-40.68 0-22.46000001-18.23-40.69-40.69-40.69L203.45 470.48l296.74-296.74c15.91-15.91 15.91-41.63 0-57.53-15.91-15.91-41.62-15.91-57.53 0L76.5 482.4c-3.79 3.74-6.75 8.26-8.83 13.27-2.07 4.92-3.13 10.21-3.13 15.5s1.06 10.58 3.13 15.54000001c2.08 5.01 5.05 9.48 8.83 13.26999999l366.15 366.19000001c15.92 15.87 41.63 15.87 57.54-0.04000002z" />
</svg>