<svg t="1720334068432" class="icon" viewBox="0 0 1024 1024" version="1.1" xmlns="http://www.w3.org/2000/svg" p-id="9831"
  width="32" height="32">
  <path
    d="M844.1 257.7H181.6c-28.8 0-52.1-22.4-52.1-50s23.3-50 52.1-50h662.5c28.8 0 52.1 22.4 52.1 50s-23.4 50-52.1 50zM844.1 865H181.6c-28.8 0-52.1-22.4-52.1-50s23.3-50 52.1-50h662.5c28.8 0 52.1 22.4 52.1 50s-23.4 50-52.1 50zM844.1 561.3H181.6c-28.8 0-52.1-22.4-52.1-50s23.3-50 52.1-50h662.5c28.8 0 52.1 22.4 52.1 50s-23.4 50-52.1 50z"
    fill="#72808C" p-id="9832"></path>
</svg>