<?xml version="1.0" standalone="no"?>
<!DOCTYPE svg PUBLIC "-//W3C//DTD SVG 1.1//EN" "http://www.w3.org/Graphics/SVG/1.1/DTD/svg11.dtd"><svg class="icon"
  width="24" height="24" viewBox="0 0 1024 1024" version="1.1" xmlns="http://www.w3.org/2000/svg">
  <path
    d="M896 921.6L896 96c0-17.67299999-14.327-32-32-32-17.67299999 0-32 14.327-32 32.00000001L832 921.59999999c0 17.67299999 14.327 32 32 32.00000001 17.67299999 0 32-14.327 32-32z m-646.028-41.395l404.352-331.09c27.383-22.41999999 27.435-58.886 0-81.35l-404.352-331.09c-27.382-22.42-49.676-12.003-49.676 23.366L200.296 856.84c0 35.646 22.24 45.83 49.676 23.365z m40.546 49.518c-69.12 56.597-154.222 16.897-154.22199999-72.883l-1e-8-696.80000001c0-89.481 85.14-129.44699999 154.222-72.88299999L694.87 418.247c58.7 48.06400001 58.662 132.353 0 180.386l-404.352 331.09z" />
</svg>