<?xml version="1.0" standalone="no"?><!DOCTYPE svg PUBLIC "-//W3C//DTD SVG 1.1//EN" "http://www.w3.org/Graphics/SVG/1.1/DTD/svg11.dtd"><svg class="icon" width="200px" height="200.00px" viewBox="0 0 1024 1024" version="1.1" xmlns="http://www.w3.org/2000/svg"><path d="M122.38 328.559c2.02-0.22 203.15-22.53 307.38 63.12 4.06 3.35 8.97 4.97 13.85 4.97 6.31 0 12.57-2.72 16.88-7.98 7.66-9.32 6.32-23.08-3-30.73-118.68-97.54-331.18-73.81-340.2-72.76-11.97 1.41-20.54 12.25-19.14 24.23 1.4 11.99 12.43 20.55 24.23 19.15zM590.73 370.239c100.74-89.67 304.08-68.78 312.63-67.85l0.28 0.03a21.801 21.801 0 0 0 23.01-14.15l0.33-0.96c0.08-0.26 0.16-0.52 0.23-0.79 0.13-0.45 0.24-0.9 0.33-1.35 0.05-0.24 0.1-0.49 0.14-0.74 0.02-0.09 0.03-0.17 0.04-0.25 0.04-0.21 0.07-0.42 0.09-0.63 0.03-0.14 0.04-0.29 0.05-0.43 0.04-0.33 0.07-0.66 0.09-0.99 0.03-0.48 0.05-0.96 0.05-1.44 0-1.38-0.14-2.77-0.4-4.13-0.07-0.35-0.14-0.69-0.23-1.03-0.07-0.31-0.16-0.62-0.25-0.93l-0.09-0.31c-0.08-0.26-0.17-0.52-0.26-0.79-0.11-0.31-0.22-0.62-0.35-0.93-0.02-0.05-0.04-0.09-0.05-0.14a30.14 30.14 0 0 0-0.69-1.5c-0.11-0.22-0.22-0.44-0.35-0.66-0.12-0.23-0.25-0.47-0.4-0.7-0.09-0.17-0.2-0.33-0.31-0.5-0.1-0.17-0.21-0.34-0.32-0.5-0.18-0.27-0.37-0.54-0.56-0.8-0.21-0.28-0.42-0.55-0.64-0.82-0.24-0.29-0.48-0.57-0.73-0.85-0.25-0.27-0.5-0.54-0.77-0.81l-0.43-0.43-68.96-68.95c-8.53-8.53-22.35-8.53-30.88 0-8.54 8.53-8.54 22.37 0 30.89l29 29c-75.63-0.89-207.08 9.29-288.57 81.74-46.84 41.66-70.6 97.77-70.6 166.75 0 1.32 0.12 2.61 0.34 3.86-0.22 1.25-0.34 2.54-0.34 3.85 0 56.72-18.28 100.58-55.89 134.04-102.41 91.17-310.79 68.09-312.89 67.83-11.84-1.51-22.83 7.19-24.23 19.16-1.4 11.96 7.17 22.82 19.14 24.23 3.09 0.36 29.18 3.28 67 3.28 76.68 0 201.49-12.03 279.94-81.8 44.45-39.53 68.12-92.05 70.42-156.25 0.13-0.94 0.19-1.89 0.19-2.85 0-0.49-0.02-0.99-0.07-1.48 0.05-2.04 0.07-4.1 0.07-6.16 0-1.31-0.12-2.6-0.34-3.85 0.22-1.25 0.34-2.54 0.34-3.86 0-56.71 18.28-100.57 55.89-134.05zM927.86 740.859c-0.01-0.12-0.02-0.25-0.05-0.37-0.02-0.26-0.06-0.52-0.11-0.77 0.01-0.01 0.01-0.02 0-0.03-0.05-0.33-0.12-0.67-0.19-0.99 0.01-0.01 0-0.01 0-0.02-0.07-0.33-0.15-0.65-0.23-0.97 0-0.01 0-0.03-0.02-0.04-0.08-0.32-0.17-0.64-0.27-0.95-0.11-0.32-0.21-0.64-0.33-0.96-2.21-5.97-6.95-10.64-12.69-12.9-0.01 0-0.02-0.01-0.03-0.01-0.28-0.1-0.57-0.21-0.85-0.3-0.24-0.08-0.48-0.16-0.72-0.23-2.57-0.79-5.31-1.09-8.08-0.82-0.42 0.04-0.85 0.09-1.27 0.14-13.28 1.43-237.39 23.23-329-84.98-7.8-9.2-21.54-10.33-30.8-2.56-9.19 7.8-10.34 21.58-2.56 30.8 75.3 88.92 216.87 103.36 300.89 103.36 3 0 5.93-0.02 8.78-0.05l-29 29c-8.54 8.53-8.54 22.35 0 30.89 4.26 4.26 9.85 6.39 15.44 6.39s11.18-2.13 15.44-6.39l69.39-69.39c1.03-1.03 1.93-2.13 2.7-3.29 0.16-0.24 0.32-0.48 0.47-0.73 0.04-0.05 0.07-0.1 0.09-0.14 0.15-0.26 0.31-0.52 0.45-0.79 0.16-0.28 0.3-0.56 0.44-0.85 0.11-0.2 0.2-0.39 0.28-0.59 0.1-0.2 0.19-0.4 0.27-0.6 0.06-0.15 0.13-0.3 0.19-0.46 0.1-0.27 0.2-0.54 0.29-0.81 0.09-0.25 0.17-0.5 0.25-0.75 0.13-0.41 0.24-0.82 0.34-1.23 0.09-0.35 0.16-0.69 0.23-1.03 0.26-1.35 0.4-2.73 0.4-4.14 0-0.49-0.02-0.98-0.06-1.46-0.01-0.33-0.04-0.65-0.08-0.98z" /></svg>